<?xml version="1.0" standalone="no"?>
<!DOCTYPE svg PUBLIC "-//W3C//DTD SVG 20010904//EN"
 "http://www.w3.org/TR/2001/REC-SVG-20010904/DTD/svg10.dtd">
<svg version="1.0" xmlns="http://www.w3.org/2000/svg"
 width="512.000000pt" height="512.000000pt" viewBox="0 0 512.000000 512.000000"
 preserveAspectRatio="xMidYMid meet">

<g transform="translate(0.000000,512.000000) scale(0.100000,-0.100000)"
fill="#000000" stroke="none">
<path d="M2635 5114 c-16 -2 -77 -9 -135 -15 -58 -5 -132 -15 -165 -20 -105
-18 -334 -88 -520 -161 -152 -59 -195 -80 -278 -140 -55 -39 -121 -90 -147
-113 -27 -24 -86 -62 -130 -86 -135 -70 -212 -154 -297 -324 -29 -58 -44 -99
-97 -275 -30 -99 -74 -373 -83 -510 -6 -105 19 -279 63 -445 13 -49 40 -151
60 -225 20 -74 42 -147 51 -163 13 -27 13 -30 -16 -63 -51 -57 -64 -93 -69
-182 -9 -167 35 -274 210 -512 62 -85 117 -160 121 -166 4 -7 29 -101 56 -210
28 -110 71 -253 96 -319 73 -187 83 -224 94 -346 17 -175 15 -199 -10 -199
-33 0 -255 -78 -334 -117 -38 -20 -110 -60 -159 -90 -111 -68 -135 -79 -376
-163 -164 -57 -409 -149 -537 -201 -26 -11 -33 -19 -33 -41 l0 -28 876 0 876
0 -21 28 c-105 135 -171 266 -195 385 -9 43 -21 151 -26 240 -5 89 -12 189
-15 222 -6 59 -6 60 12 39 10 -12 56 -77 103 -144 46 -68 119 -160 162 -205
211 -223 605 -406 873 -405 147 1 394 101 555 225 106 81 276 252 330 332 29
43 57 82 62 88 13 14 0 -205 -17 -284 -33 -159 -121 -325 -245 -463 l-52 -58
922 0 921 0 -3 98 -3 97 -55 7 c-30 3 -72 9 -92 12 l-38 6 0 -46 c0 -53 -23
-58 -28 -6 -3 34 -22 45 -22 14 0 -10 -6 -27 -14 -38 -14 -18 -15 -18 -29 15
l-15 34 -7 -31 c-13 -59 -35 -32 -35 43 0 24 -4 47 -10 50 -6 4 -10 -12 -10
-42 0 -26 -7 -56 -14 -65 -16 -22 -59 -23 -75 -4 -20 24 -25 82 -8 114 l15 30
-97 37 c-442 172 -686 272 -744 306 -37 22 -95 51 -130 63 l-62 24 -3 70 c-3
69 -2 72 67 209 138 274 159 334 236 698 35 163 40 176 85 207 85 59 181 218
223 367 16 60 21 107 21 221 1 157 -7 188 -58 226 -25 19 -25 19 -11 84 19 89
66 425 75 535 5 59 15 107 30 139 18 41 21 60 17 110 -14 146 -29 255 -42 301
-21 75 -86 200 -152 295 -65 93 -117 133 -198 154 -42 10 -50 16 -64 52 -9 23
-31 58 -50 79 -19 22 -44 62 -56 90 -31 68 -102 145 -183 196 -37 23 -95 64
-129 90 -144 110 -501 251 -683 269 -52 5 -97 9 -100 8 -3 0 -18 -3 -35 -4z
m-335 -1095 c25 -5 119 -27 210 -49 301 -71 380 -79 538 -52 214 37 298 45
351 32 55 -13 112 -3 169 31 18 10 35 19 37 19 2 0 18 -21 36 -47 67 -97 102
-283 81 -433 -14 -96 -6 -133 64 -282 35 -74 66 -159 84 -232 27 -109 35 -160
60 -391 6 -55 20 -158 32 -230 26 -161 19 -243 -47 -572 -48 -238 -79 -355
-122 -460 -26 -65 -47 -84 -37 -35 5 23 1 32 -20 45 -14 9 -31 17 -37 17 -12
0 -70 -62 -100 -108 -16 -23 -87 -62 -114 -62 -36 0 -73 113 -61 186 17 106
18 137 6 180 -18 62 -91 140 -172 183 l-65 35 -53 -17 c-72 -23 -148 -22 -212
5 -49 20 -68 21 -267 19 -118 -1 -219 -5 -225 -8 -15 -10 -81 -15 -170 -14
-70 1 -84 4 -124 31 -52 34 -63 35 -152 15 -197 -46 -292 -129 -275 -243 3
-26 13 -67 21 -92 27 -79 36 -142 35 -242 -1 -98 -12 -148 -31 -148 -5 0 -10
20 -10 45 0 33 -4 45 -15 45 -14 0 -25 -27 -30 -74 -4 -32 -4 -33 -25 -6 -11
14 -20 34 -20 44 0 28 -11 12 -15 -21 -7 -73 -28 -189 -36 -197 -13 -15 -30
41 -20 67 5 12 14 50 21 83 10 58 9 65 -15 110 -14 27 -31 52 -37 56 -7 4 -17
24 -23 45 -6 21 -15 37 -20 36 -17 -3 -27 -82 -16 -115 6 -17 11 -43 11 -57 0
-14 10 -42 21 -61 27 -44 40 -88 29 -95 -22 -14 -163 324 -223 535 -112 392
-136 590 -110 875 39 416 65 555 137 738 48 121 69 229 59 305 -3 20 0 84 5
142 16 171 68 294 137 327 34 16 36 16 60 -7 23 -22 28 -22 82 -12 32 6 80 14
107 17 27 3 93 25 147 50 56 26 115 46 136 46 21 1 52 5 68 9 32 9 82 5 155
-11z m1922 -1359 c28 -38 34 -171 14 -287 -32 -183 -88 -305 -179 -389 -32
-30 -61 -53 -64 -50 -2 2 1 21 7 43 6 21 13 101 16 178 9 223 55 429 111 495
40 47 65 49 95 10z m-3149 -123 c54 -51 65 -100 97 -452 6 -60 14 -143 18
-183 5 -40 5 -75 1 -77 -15 -10 -174 195 -215 277 -56 111 -80 278 -52 370 14
47 63 98 94 98 13 0 38 -15 57 -33z m1167 -797 c0 -5 -4 -10 -10 -10 -5 0 -10
5 -10 10 0 6 5 10 10 10 6 0 10 -4 10 -10z m-85 -70 c10 -17 -12 -37 -46 -42
l-29 -5 27 29 c29 30 38 34 48 18z m121 -82 c6 4 15 22 19 40 8 36 35 44 35 9
0 -28 50 -53 77 -39 29 15 144 7 196 -13 47 -18 48 -18 76 3 19 13 37 19 51
15 16 -4 28 1 41 18 l19 24 19 -24 c18 -24 28 -24 63 1 15 10 22 8 46 -15 35
-33 52 -34 52 -3 0 32 17 42 38 24 9 -8 46 -23 82 -32 79 -22 189 -66 197 -79
9 -14 -12 -23 -101 -43 -119 -27 -768 -27 -961 0 -141 20 -270 55 -306 85
l-24 19 44 12 c24 6 53 9 63 7 11 -3 33 -1 49 5 21 7 33 7 42 -1 12 -9 112 -1
120 10 2 2 12 18 23 34 l19 30 5 -47 c3 -32 9 -45 16 -40z m-268 -113 c156
-53 359 -69 807 -63 279 4 351 8 399 22 33 9 66 22 73 28 21 17 28 3 57 -112
26 -107 35 -246 17 -266 -5 -5 -16 -35 -25 -66 -9 -32 -21 -58 -26 -58 -5 0
-24 -16 -41 -35 -18 -19 -39 -35 -47 -35 -8 0 -33 -20 -56 -45 -26 -27 -51
-45 -64 -45 -12 0 -46 -13 -75 -30 -30 -16 -66 -30 -81 -30 -15 0 -37 -5 -49
-12 -12 -6 -38 -10 -59 -10 -20 1 -40 -3 -43 -8 -3 -6 -18 -10 -33 -10 -15 0
-33 -4 -41 -9 -10 -6 -27 -3 -52 10 -36 18 -39 18 -48 1 -9 -16 -12 -16 -45 2
-21 11 -60 20 -94 22 -107 4 -292 49 -336 82 -6 5 -33 17 -61 27 -27 10 -70
29 -95 41 -25 13 -53 24 -63 24 -12 0 -25 16 -38 48 -11 26 -32 71 -46 101
-41 87 -49 171 -28 266 10 44 20 109 22 145 6 87 15 96 63 64 21 -14 70 -36
108 -49z m-211 20 c-2 -40 -13 -46 -19 -12 -5 27 0 47 12 47 5 0 8 -16 7 -35z
m1580 -87 c-3 -8 -6 -5 -6 6 -1 11 2 17 5 13 3 -3 4 -12 1 -19z m-1587 -349
c0 -17 -4 -28 -10 -24 -5 3 -10 1 -10 -6 0 -7 -2 -10 -5 -8 -4 5 16 69 22 69
2 0 3 -14 3 -31z m2685 -779 c-4 -6 -18 -15 -31 -20 -32 -12 -31 -29 1 -22 18
3 25 0 25 -12 0 -9 -4 -16 -8 -16 -5 0 -17 -7 -28 -15 -18 -15 -18 -15 11 -13
39 4 46 -24 10 -40 -37 -17 -53 -15 -65 7 -14 27 -13 104 3 124 24 34 103 40
82 7z m-665 10 c0 -6 -9 -19 -20 -30 -15 -15 -20 -33 -20 -75 0 -42 -3 -55
-15 -55 -12 0 -15 13 -15 61 0 52 -3 62 -20 66 -44 12 -7 42 53 43 20 0 37 -4
37 -10z m96 -27 c19 -43 11 -96 -17 -124 -24 -24 -34 -24 -59 1 -25 25 -27
105 -4 138 25 36 62 29 80 -15z m118 15 c25 -36 21 -104 -9 -133 -28 -28 -34
-30 -58 -12 -20 14 -32 74 -23 111 14 55 63 73 90 34z m104 -25 l20 -48 1 48
c1 52 16 62 32 20 10 -25 5 -95 -8 -129 -9 -25 -32 -15 -52 24 -18 34 -20 35
-21 12 0 -14 -4 -31 -9 -39 -17 -26 -31 1 -31 60 0 106 34 131 68 52z m141 16
c17 -28 20 -29 25 -11 4 11 14 26 22 33 27 22 44 -14 44 -94 0 -78 -18 -89
-34 -21 l-9 39 -11 -38 c-14 -49 -28 -49 -42 0 l-11 38 -7 -43 c-9 -61 -30
-49 -34 19 -3 58 10 109 28 109 6 0 19 -14 29 -31z m361 17 c14 -18 10 -58 -8
-64 -6 -2 -16 7 -21 20 -8 19 -10 20 -16 6 -3 -9 -5 -31 -3 -49 2 -28 7 -34
27 -34 34 0 38 -22 7 -36 -53 -25 -94 35 -74 107 16 58 60 83 88 50z m-105
-135 c7 -12 -12 -24 -25 -16 -11 7 -4 25 10 25 5 0 11 -4 15 -9z"/>
<path d="M3106 3280 c-192 -19 -256 -50 -256 -127 0 -52 29 -106 63 -117 18
-7 63 -6 135 3 195 24 324 25 465 2 71 -12 141 -28 157 -36 16 -8 36 -15 45
-15 47 0 16 98 -53 165 -114 112 -284 151 -556 125z"/>
<path d="M1940 3160 c-161 -10 -272 -39 -354 -94 -72 -49 -126 -116 -126 -157
0 -25 4 -29 28 -29 29 0 132 19 247 46 49 12 144 18 318 23 245 6 249 6 268
29 40 51 35 129 -12 164 -31 23 -177 30 -369 18z"/>
<path d="M3080 2881 c-153 -49 -240 -131 -240 -225 0 -105 150 -155 470 -157
207 -1 315 24 344 80 19 35 20 53 5 105 -23 84 -159 182 -283 205 -91 17 -232
13 -296 -8z m303 -36 c77 -20 130 -48 182 -96 50 -46 68 -83 63 -130 -2 -28
-10 -37 -43 -54 -37 -18 -60 -20 -270 -20 -234 0 -315 9 -380 43 -59 30 -66
54 -35 118 27 54 107 110 192 135 79 22 214 24 291 4z"/>
<path d="M3168 2749 c-58 -43 -22 -139 52 -139 32 0 75 31 82 58 8 30 -18 81
-47 92 -38 14 -56 12 -87 -11z"/>
<path d="M1900 2820 c-161 -20 -312 -111 -345 -206 -21 -61 -2 -132 42 -155
33 -18 308 -17 439 1 194 26 270 57 299 119 16 36 17 46 6 83 -37 122 -218
187 -441 158z m257 -55 c93 -28 163 -103 149 -160 -18 -71 -172 -107 -511
-121 -144 -6 -167 -5 -189 10 -36 23 -36 87 -1 138 28 41 126 101 203 125 110
34 252 37 349 8z"/>
<path d="M1921 2686 c-31 -32 -26 -82 11 -109 24 -18 32 -19 67 -8 64 19 81
72 36 116 -32 33 -83 34 -114 1z"/>
<path d="M2799 2744 c-18 -45 -13 -209 8 -288 24 -90 46 -102 27 -14 -23 103
-34 243 -23 284 13 44 4 57 -12 18z"/>
<path d="M2220 2108 c-44 -72 -34 -145 26 -198 36 -31 48 -34 124 -31 25 2 90
-7 144 -18 124 -26 161 -26 311 0 135 24 175 43 200 95 24 52 13 99 -37 149
-48 47 -62 34 -24 -22 16 -24 26 -51 26 -74 0 -60 -36 -82 -172 -108 -140 -26
-184 -26 -290 -1 -47 11 -118 20 -164 20 -72 0 -83 3 -103 24 -30 32 -37 86
-17 136 9 22 16 45 16 50 0 21 -21 9 -40 -22z"/>
<path d="M1420 1418 c-1 -39 22 -119 33 -115 7 2 11 17 9 32 -4 34 -41 108
-42 83z"/>
<path d="M4091 2444 c-21 -27 -26 -68 -15 -111 10 -38 24 -26 24 20 0 41 21
87 40 87 5 0 16 -12 24 -27 l15 -28 1 31 c0 57 -53 74 -89 28z"/>
<path d="M1038 2354 c-4 -3 5 -22 19 -42 22 -33 24 -44 18 -94 -10 -96 41
-178 55 -87 5 33 3 49 -19 135 -16 59 -55 107 -73 88z"/>
<path d="M2950 1259 c-30 -21 -75 -45 -100 -54 -66 -23 -245 -38 -316 -26 -32
5 -75 12 -94 16 -28 4 -21 -2 39 -32 l73 -38 25 -75 c34 -99 40 -106 69 -79
14 13 29 19 42 15 31 -10 44 16 40 85 l-3 62 66 21 c98 32 189 88 210 128 12
22 15 24 -51 -23z"/>
<path d="M2344 1226 c11 -9 24 -16 30 -16 12 0 7 5 -24 19 -24 11 -24 11 -6
-3z"/>
<path d="M3850 210 c0 -22 4 -40 9 -40 12 0 20 36 14 60 -9 34 -23 22 -23 -20z"/>
<path d="M3975 237 c-9 -22 -2 -62 10 -60 6 1 11 14 13 29 4 32 -14 56 -23 31z"/>
<path d="M4695 230 c-7 -23 2 -60 16 -60 5 0 9 18 9 40 0 42 -14 54 -25 20z"/>
</g>
</svg>
